<svg width="128" height="161" viewBox="0 0 128 161" fill="none" xmlns="http://www.w3.org/2000/svg">
<path d="M4 49.5L60.6865 4.44148C61.7548 3.59234 63.2616 3.57117 64.3533 4.38995L124.5 49.5" stroke="white" stroke-width="7" stroke-linecap="round"/>
<path d="M105 55V79.5V103C105 103.552 104.552 104 104 104H78" stroke="white" stroke-width="6" stroke-linecap="round"/>
<circle cx="64" cy="73" r="7" fill="white"/>
<path fill-rule="evenodd" clip-rule="evenodd" d="M24 55C24 53.3431 22.6569 52 21 52C19.3431 52 18 53.3431 18 55V79.5V103C18 105.209 19.7909 107 22 107H63C65.2091 107 67 105.209 67 103V84C67 83.4243 66.8378 82.8864 66.5566 82.4296C65.781 82.7954 64.9144 83 64 83C63.0856 83 62.219 82.7954 61.4434 82.4296C61.1622 82.8864 61 83.4243 61 84V101H24V79.5V55Z" fill="white"/>
<path d="M38 46C45.1594 39.5384 54.1824 36 63.5 36C72.8176 36 81.8406 39.5384 89 46" stroke="white" stroke-width="8" stroke-linecap="round" stroke-linejoin="round"/>
<path d="M51 59C54.6518 56.398 59.0204 55 63.5 55C67.9796 55 72.3482 56.398 76 59" stroke="white" stroke-width="8" stroke-linecap="round" stroke-linejoin="round"/>
<path d="M14.8115 136L22.1285 116.722H26.4755L33.6845 136H29.2835L27.8255 131.707H20.6165L19.1045 136H14.8115ZM24.2345 121.474L21.7235 128.548H26.7185L24.2885 121.474H24.2345ZM48.1989 126.955H44.4459C44.1939 125.353 43.2489 124.552 41.6109 124.552C40.4949 124.552 39.6399 125.047 39.0459 126.037C38.5779 126.865 38.3439 127.882 38.3439 129.088C38.3439 130.258 38.5779 131.239 39.0459 132.031C39.6039 133.003 40.4319 133.489 41.5299 133.489C43.2939 133.489 44.3109 132.544 44.5809 130.654H48.2799C48.0459 132.49 47.3259 133.903 46.1199 134.893C44.9319 135.883 43.4109 136.378 41.5569 136.378C39.4689 136.378 37.7679 135.712 36.4539 134.38C35.1579 133.048 34.5099 131.329 34.5099 129.223C34.5099 126.991 35.1309 125.191 36.3729 123.823C37.6689 122.383 39.4239 121.663 41.6379 121.663C43.4019 121.663 44.8779 122.095 46.0659 122.959C47.3799 123.931 48.0909 125.263 48.1989 126.955ZM63.7028 126.955H59.9498C59.6978 125.353 58.7528 124.552 57.1148 124.552C55.9988 124.552 55.1438 125.047 54.5498 126.037C54.0818 126.865 53.8478 127.882 53.8478 129.088C53.8478 130.258 54.0818 131.239 54.5498 132.031C55.1078 133.003 55.9358 133.489 57.0338 133.489C58.7978 133.489 59.8148 132.544 60.0848 130.654H63.7838C63.5498 132.49 62.8298 133.903 61.6238 134.893C60.4358 135.883 58.9148 136.378 57.0608 136.378C54.9728 136.378 53.2718 135.712 51.9578 134.38C50.6618 133.048 50.0138 131.329 50.0138 129.223C50.0138 126.991 50.6348 125.191 51.8768 123.823C53.1728 122.383 54.9278 121.663 57.1418 121.663C58.9058 121.663 60.3818 122.095 61.5698 122.959C62.8838 123.931 63.5948 125.263 63.7028 126.955ZM79.1797 129.952H69.1087C69.2167 132.31 70.3597 133.489 72.5377 133.489C73.2757 133.489 73.9417 133.291 74.5357 132.895C75.0937 132.553 75.4357 132.148 75.5617 131.68H78.9367C77.9107 134.812 75.7327 136.378 72.4027 136.378C70.2247 136.378 68.4877 135.703 67.1917 134.353C65.9137 132.985 65.2747 131.212 65.2747 129.034C65.2747 126.91 65.9317 125.155 67.2457 123.769C68.5777 122.365 70.2967 121.663 72.4027 121.663C74.6707 121.663 76.4257 122.509 77.6677 124.201C78.8197 125.749 79.3237 127.666 79.1797 129.952ZM69.1087 127.522H75.3457C74.9857 125.542 73.9687 124.552 72.2947 124.552C71.2147 124.552 70.3867 124.912 69.8107 125.632C69.3787 126.172 69.1447 126.802 69.1087 127.522ZM80.7786 131.464H84.4236C84.4416 132.256 84.7476 132.859 85.3416 133.273C85.8636 133.633 86.5386 133.813 87.3666 133.813C88.0326 133.813 88.5906 133.687 89.0406 133.435C89.5986 133.111 89.8776 132.643 89.8776 132.031C89.8776 131.491 89.4996 131.059 88.7436 130.735C88.2036 130.501 87.1326 130.213 85.5306 129.871C84.1626 129.583 83.1456 129.205 82.4796 128.737C81.5616 128.125 81.1026 127.261 81.1026 126.145C81.1026 123.157 83.1276 121.663 87.1776 121.663C91.0296 121.663 93.0816 123.148 93.3336 126.118H89.6886C89.5986 124.858 88.7256 124.228 87.0696 124.228C85.6476 124.228 84.9366 124.66 84.9366 125.524C84.9366 126.118 85.3866 126.577 86.2866 126.901C86.3946 126.937 87.3936 127.171 89.2836 127.603C90.6696 127.927 91.6866 128.323 92.3346 128.791C93.2526 129.439 93.7116 130.348 93.7116 131.518C93.7116 133.21 93.0456 134.479 91.7136 135.325C90.6156 136.027 89.1576 136.378 87.3396 136.378C85.5216 136.378 84.0456 136.018 82.9116 135.298C81.5616 134.452 80.8506 133.174 80.7786 131.464ZM95.2806 131.464H98.9256C98.9436 132.256 99.2496 132.859 99.8436 133.273C100.366 133.633 101.041 133.813 101.869 133.813C102.535 133.813 103.093 133.687 103.543 133.435C104.101 133.111 104.38 132.643 104.38 132.031C104.38 131.491 104.002 131.059 103.246 130.735C102.706 130.501 101.635 130.213 100.033 129.871C98.6646 129.583 97.6476 129.205 96.9816 128.737C96.0636 128.125 95.6046 127.261 95.6046 126.145C95.6046 123.157 97.6296 121.663 101.68 121.663C105.532 121.663 107.584 123.148 107.836 126.118H104.191C104.101 124.858 103.228 124.228 101.572 124.228C100.15 124.228 99.4386 124.66 99.4386 125.524C99.4386 126.118 99.8886 126.577 100.789 126.901C100.897 126.937 101.896 127.171 103.786 127.603C105.172 127.927 106.189 128.323 106.837 128.791C107.755 129.439 108.214 130.348 108.214 131.518C108.214 133.21 107.548 134.479 106.216 135.325C105.118 136.027 103.66 136.378 101.842 136.378C100.024 136.378 98.5476 136.018 97.4136 135.298C96.0636 134.452 95.3526 133.174 95.2806 131.464ZM9.11154 160V140.722H13.3235L21.3695 153.655H21.4235V140.722H25.3925V160H21.1535L13.1345 147.094H13.0805V160H9.11154ZM41.9492 153.952H31.8782C31.9862 156.31 33.1292 157.489 35.3072 157.489C36.0452 157.489 36.7112 157.291 37.3052 156.895C37.8632 156.553 38.2052 156.148 38.3312 155.68H41.7062C40.6802 158.812 38.5022 160.378 35.1722 160.378C32.9942 160.378 31.2572 159.703 29.9612 158.353C28.6832 156.985 28.0442 155.212 28.0442 153.034C28.0442 150.91 28.7012 149.155 30.0152 147.769C31.3472 146.365 33.0662 145.663 35.1722 145.663C37.4402 145.663 39.1952 146.509 40.4372 148.201C41.5892 149.749 42.0932 151.666 41.9492 153.952ZM31.8782 151.522H38.1152C37.7552 149.542 36.7382 148.552 35.0642 148.552C33.9842 148.552 33.1562 148.912 32.5802 149.632C32.1482 150.172 31.9142 150.802 31.8782 151.522ZM49.0831 141.856V146.041H51.8911V148.606H49.0831V155.518C49.0831 156.166 49.1911 156.598 49.4071 156.814C49.6231 157.03 50.0551 157.138 50.7031 157.138C51.1351 157.138 51.5311 157.102 51.8911 157.03V160.027C51.3511 160.117 50.6041 160.162 49.6501 160.162C46.7161 160.162 45.2491 159.055 45.2491 156.841V148.606H42.9271V146.041H45.2491V141.856H49.0831ZM74.0733 146.041L69.6723 160H65.7303L63.2463 150.631H63.1923L60.8163 160H56.8473L52.4193 146.041H56.4693L59.0343 155.518H59.0883L61.4103 146.041H65.1363L67.5123 155.491H67.5663L70.1313 146.041H74.0733ZM75.2736 153.034C75.2736 150.802 75.9306 149.02 77.2446 147.688C78.5586 146.338 80.3046 145.663 82.4826 145.663C84.6786 145.663 86.4336 146.338 87.7476 147.688C89.0616 149.02 89.7186 150.802 89.7186 153.034C89.7186 155.248 89.0616 157.03 87.7476 158.38C86.4336 159.712 84.6786 160.378 82.4826 160.378C80.3046 160.378 78.5586 159.712 77.2446 158.38C75.9306 157.03 75.2736 155.248 75.2736 153.034ZM79.1076 153.034C79.1076 154.312 79.3506 155.329 79.8366 156.085C80.4126 157.021 81.2946 157.489 82.4826 157.489C84.7506 157.489 85.8846 156.004 85.8846 153.034C85.8846 150.046 84.7506 148.552 82.4826 148.552C80.2326 148.552 79.1076 150.046 79.1076 153.034ZM92.2114 160V146.041H95.8564V148.633H95.9104C96.2524 147.769 96.8464 147.058 97.6924 146.5C98.5384 145.942 99.4294 145.663 100.365 145.663C100.653 145.663 100.932 145.708 101.202 145.798V149.362C100.806 149.272 100.347 149.227 99.8254 149.227C97.3054 149.227 96.0454 150.721 96.0454 153.709V160H92.2114ZM103.057 160V140.722H106.891V151.063L111.724 146.041H116.26L110.995 151.171L116.854 160H112.21L108.376 153.763L106.891 155.194V160H103.057Z" fill="white"/>
</svg>
