<svg xmlns="http://www.w3.org/2000/svg" width="326" height="117" viewBox="0 0 326 117" fill="none"><path d="M4 49.5L60.6865 4.44148C61.7548 3.59234 63.2616 3.57117 64.3533 4.38995L124.5 49.5" stroke="black" stroke-width="7" stroke-linecap="round"></path><path d="M105 55V79.5V103C105 103.552 104.552 104 104 104H78" stroke="black" stroke-width="6" stroke-linecap="round"></path><circle cx="64" cy="73" r="7" fill="#FF0000"></circle><path fill-rule="evenodd" clip-rule="evenodd" d="M24 55C24 53.3431 22.6569 52 21 52C19.3431 52 18 53.3431 18 55V79.5V103C18 105.209 19.7909 107 22 107H63C65.2091 107 67 105.209 67 103V84C67 83.4243 66.8378 82.8864 66.5566 82.4296C65.781 82.7954 64.9144 83 64 83C63.0856 83 62.219 82.7954 61.4434 82.4296C61.1622 82.8864 61 83.4243 61 84V101H24V79.5V55Z" fill="black"></path><path d="M38 46C45.1594 39.5384 54.1824 36 63.5 36C72.8176 36 81.8406 39.5384 89 46" stroke="#00ED64" stroke-width="8" stroke-linecap="round" stroke-linejoin="round"></path><path d="M51 59C54.6518 56.398 59.0204 55 63.5 55C67.9796 55 72.3482 56.398 76 59" stroke="#2269F3" stroke-width="8" stroke-linecap="round" stroke-linejoin="round"></path><path d="M149.902 44.178L145.366 57.072H154.522L150.028 44.178H149.902ZM135.706 69L147.214 39.012H152.8L164.35 69H158.722L155.908 61.062H143.938L141.124 69H135.706ZM185.98 54.552H181.192C180.8 51.836 179.148 50.478 176.236 50.478C174.64 50.478 173.338 50.968 172.33 51.948C170.958 53.292 170.272 55.434 170.272 58.374C170.272 60.418 170.706 62.112 171.574 63.456C172.61 65.024 174.094 65.808 176.026 65.808C177.426 65.808 178.574 65.374 179.47 64.506C180.394 63.61 180.968 62.392 181.192 60.852H185.98C185.056 66.676 181.738 69.588 176.026 69.588C172.722 69.588 170.118 68.51 168.214 66.354C166.394 64.338 165.484 61.678 165.484 58.374C165.484 54.93 166.38 52.158 168.172 50.058C170.076 47.818 172.75 46.698 176.194 46.698C178.854 46.698 181.052 47.342 182.788 48.63C184.692 50.03 185.756 52.004 185.98 54.552ZM209.318 54.552H204.53C204.138 51.836 202.486 50.478 199.574 50.478C197.978 50.478 196.676 50.968 195.668 51.948C194.296 53.292 193.61 55.434 193.61 58.374C193.61 60.418 194.044 62.112 194.912 63.456C195.948 65.024 197.432 65.808 199.364 65.808C200.764 65.808 201.912 65.374 202.808 64.506C203.732 63.61 204.306 62.392 204.53 60.852H209.318C208.394 66.676 205.076 69.588 199.364 69.588C196.06 69.588 193.456 68.51 191.552 66.354C189.732 64.338 188.822 61.678 188.822 58.374C188.822 54.93 189.718 52.158 191.51 50.058C193.414 47.818 196.088 46.698 199.532 46.698C202.192 46.698 204.39 47.342 206.126 48.63C208.03 50.03 209.094 52.004 209.318 54.552ZM232.907 59.382H216.947C216.947 61.202 217.423 62.7 218.375 63.876C219.411 65.164 220.881 65.808 222.785 65.808C225.473 65.808 227.237 64.604 228.077 62.196H232.613C232.109 64.52 230.947 66.34 229.127 67.656C227.335 68.944 225.221 69.588 222.785 69.588C219.453 69.588 216.849 68.538 214.973 66.438C213.097 64.338 212.159 61.58 212.159 58.164C212.159 54.972 213.097 52.284 214.973 50.1C216.961 47.832 219.523 46.698 222.659 46.698C225.711 46.698 228.217 47.818 230.177 50.058C232.053 52.158 232.991 54.734 232.991 57.786C232.991 58.318 232.963 58.85 232.907 59.382ZM216.947 56.232H228.119C228.035 54.636 227.489 53.278 226.481 52.158C225.501 51.038 224.227 50.478 222.659 50.478C221.035 50.478 219.691 51.024 218.627 52.116C217.563 53.208 217.003 54.58 216.947 56.232ZM235.371 62.028H240.159C240.383 64.548 242.021 65.808 245.073 65.808C248.377 65.808 249.987 64.856 249.903 62.952C249.847 61.608 248.587 60.642 246.123 60.054C242.007 59.046 239.781 58.458 239.445 58.29C237.037 57.226 235.833 55.434 235.833 52.914C235.833 50.758 236.855 49.134 238.899 48.042C240.523 47.146 242.525 46.698 244.905 46.698C247.341 46.698 249.343 47.202 250.911 48.21C252.675 49.386 253.697 51.108 253.977 53.376H248.979C248.615 51.444 247.145 50.478 244.569 50.478C241.937 50.478 240.621 51.22 240.621 52.704C240.621 53.712 241.363 54.482 242.847 55.014C243.127 55.126 244.737 55.518 247.677 56.19C249.861 56.694 251.471 57.31 252.507 58.038C253.963 59.102 254.691 60.6 254.691 62.532C254.691 64.912 253.641 66.732 251.541 67.992C249.777 69.056 247.593 69.588 244.989 69.588C242.133 69.588 239.865 68.972 238.185 67.74C236.337 66.396 235.399 64.492 235.371 62.028ZM257.151 62.028H261.939C262.163 64.548 263.801 65.808 266.853 65.808C270.157 65.808 271.767 64.856 271.683 62.952C271.627 61.608 270.367 60.642 267.903 60.054C263.787 59.046 261.561 58.458 261.225 58.29C258.817 57.226 257.613 55.434 257.613 52.914C257.613 50.758 258.635 49.134 260.679 48.042C262.303 47.146 264.305 46.698 266.685 46.698C269.121 46.698 271.123 47.202 272.691 48.21C274.455 49.386 275.477 51.108 275.757 53.376H270.759C270.395 51.444 268.925 50.478 266.349 50.478C263.717 50.478 262.401 51.22 262.401 52.704C262.401 53.712 263.143 54.482 264.627 55.014C264.907 55.126 266.517 55.518 269.457 56.19C271.641 56.694 273.251 57.31 274.287 58.038C275.743 59.102 276.471 60.6 276.471 62.532C276.471 64.912 275.421 66.732 273.321 67.992C271.557 69.056 269.373 69.588 266.769 69.588C263.913 69.588 261.645 68.972 259.965 67.74C258.117 66.396 257.179 64.492 257.151 62.028ZM138.982 109V79.012H144.526L158.218 101.104H158.302V79.012H163.3V109H157.756L144.106 86.95H143.98V109H138.982ZM188.529 99.382H172.569C172.569 101.202 173.045 102.7 173.997 103.876C175.033 105.164 176.503 105.808 178.407 105.808C181.095 105.808 182.859 104.604 183.699 102.196H188.235C187.731 104.52 186.569 106.34 184.749 107.656C182.957 108.944 180.843 109.588 178.407 109.588C175.075 109.588 172.471 108.538 170.595 106.438C168.719 104.338 167.781 101.58 167.781 98.164C167.781 94.972 168.719 92.284 170.595 90.1C172.583 87.832 175.145 86.698 178.281 86.698C181.333 86.698 183.839 87.818 185.799 90.058C187.675 92.158 188.613 94.734 188.613 97.786C188.613 98.318 188.585 98.85 188.529 99.382ZM172.569 96.232H183.741C183.657 94.636 183.111 93.278 182.103 92.158C181.123 91.038 179.849 90.478 178.281 90.478C176.657 90.478 175.313 91.024 174.249 92.116C173.185 93.208 172.625 94.58 172.569 96.232ZM189.984 90.856V87.286H193.596V80.776H198.384V87.286H202.71V90.856H198.384V102.448C198.384 103.568 198.496 104.31 198.72 104.674C199.028 105.178 199.686 105.43 200.694 105.43C201.59 105.43 202.262 105.374 202.71 105.262V108.958C200.61 109.126 199.574 109.21 199.602 109.21C197.25 109.21 195.626 108.734 194.73 107.782C193.974 106.998 193.596 105.626 193.596 103.666V90.856H189.984ZM210.901 109L204.181 87.286H209.263L213.505 103.498H213.589L217.663 87.286H222.493L226.399 103.498H226.483L230.893 87.286H235.765L228.961 109H224.047L220.015 92.872H219.931L215.941 109H210.901ZM248.798 105.808C250.814 105.808 252.382 104.996 253.502 103.372C254.482 101.972 254.972 100.222 254.972 98.122C254.972 96.05 254.482 94.314 253.502 92.914C252.382 91.29 250.814 90.478 248.798 90.478C246.782 90.478 245.214 91.29 244.094 92.914C243.114 94.314 242.624 96.05 242.624 98.122C242.624 100.222 243.114 101.972 244.094 103.372C245.214 104.996 246.782 105.808 248.798 105.808ZM248.798 109.588C245.382 109.588 242.68 108.51 240.692 106.354C238.788 104.282 237.836 101.538 237.836 98.122C237.836 94.734 238.802 91.99 240.734 89.89C242.694 87.762 245.382 86.698 248.798 86.698C252.214 86.698 254.916 87.776 256.904 89.932C258.808 92.004 259.76 94.734 259.76 98.122C259.76 101.538 258.808 104.282 256.904 106.354C254.916 108.51 252.214 109.588 248.798 109.588ZM263.741 109V87.286H268.235V91.486H268.319C268.599 90.282 269.369 89.19 270.629 88.21C271.889 87.202 273.233 86.698 274.661 86.698C275.025 86.698 275.627 86.74 276.467 86.824V91.444C275.347 91.304 274.661 91.234 274.409 91.234C272.701 91.234 271.315 91.878 270.251 93.166C269.103 94.51 268.529 96.344 268.529 98.668V109H263.741ZM278.632 109V79.012H283.42V96.064L292.072 87.286H297.952L289.636 95.266L298.75 109H292.912L286.276 98.458L283.42 101.23V109H278.632Z" fill="black"></path></svg>